<svg version="1.1" xmlns="http://www.w3.org/2000/svg" xmlns:xlink="http://www.w3.org/1999/xlink" width="30" height="30" viewBox="0,0,256,256"><g fill="#d72df3" fill-rule="nonzero" stroke="none" stroke-width="1" stroke-linecap="butt" stroke-linejoin="miter" stroke-miterlimit="10" stroke-dasharray="" stroke-dashoffset="0" font-family="none" font-weight="none" font-size="none" text-anchor="none" style="mix-blend-mode: normal"><g transform="translate(-0.00008,0.02642) scale(8.53333,8.53333)"><path d="M27.6563,16.2938v-4.6079l1.2328,-1.0125c0.0578,-0.0452 0.1039,-0.1038 0.1341,-0.1708c0.0302,-0.0669 0.0437,-0.1402 0.0393,-0.2135c-0.0049,-0.0737 -0.0265,-0.1452 -0.063,-0.2094c-0.0366,-0.0641 -0.0871,-0.11912 -0.1479,-0.16094l-13.5938,-8.90625c-0.0773,-0.04825 -0.1666,-0.07383 -0.2578,-0.07383c-0.0911,0 -0.1805,0.02558 -0.2578,0.07383l-13.59376,8.90625c-0.0608,0.04182 -0.11136,0.09684 -0.14789,0.16094c-0.03653,0.0642 -0.05808,0.1357 -0.06304,0.2094c-0.00436,0.0733 0.00914,0.1466 0.03935,0.2135c0.03021,0.067 0.07622,0.1256 0.13408,0.1708l4.98282,4.0782v0.2672c-0.62817,1.3344 -0.94846,2.7928 -0.93721,4.2677c0.01125,1.4748 0.35375,2.9282 1.0022,4.2529c0.64844,1.3246 1.58626,2.4866 2.74415,3.4002c1.1579,0.9135 2.5062,1.5551 3.9454,1.8775c1.4392,0.3224 2.9325,0.3172 4.3694,-0.015c1.4369,-0.3323 2.7809,-0.9832 3.9324,-1.9047c1.1516,-0.9214 2.0814,-2.0899 2.7207,-3.4189c0.6394,-1.3291 0.9719,-2.7849 0.973,-4.2597c0.0037,-1.4523 -0.3166,-2.8872 -0.9375,-4.2v-0.2672l2.8125,-2.3016v3.8438l-1.1485,2.2968c-0.1071,0.2146 -0.1576,0.4531 -0.1466,0.6927c0.011,0.2396 0.0832,0.4724 0.2095,0.6763c0.1264,0.2039 0.3028,0.3721 0.5125,0.4885c0.2097,0.1165 0.4457,0.1774 0.6856,0.1769h0.7125c0.2398,0.0005 0.4758,-0.0604 0.6855,-0.1769c0.2097,-0.1164 0.3861,-0.2846 0.5125,-0.4885c0.1264,-0.2039 0.1985,-0.4367 0.2095,-0.6763c0.011,-0.2396 -0.0395,-0.4781 -0.1466,-0.6927zM11.2594,18.75c0.0158,-1.8745 0.3519,-3.7325 0.9937,-5.4937c0.9128,-0.0903 1.8297,-0.1341 2.7469,-0.1313c0.9173,-0.0028 1.8341,0.041 2.7469,0.1313c0.6419,1.7612 0.9779,3.6192 0.9937,5.4937zM18.7406,19.6875c-0.0199,1.4451 -0.2166,2.8824 -0.5859,4.2797c-2.0438,-0.7063 -4.2655,-0.7063 -6.3094,0c-0.3692,-1.3973 -0.566,-2.8346 -0.5859,-4.2797zM15,12.1875c-3.2062,0 -6.42655,0.5109 -7.96874,1.4906v-2.8968c0,-0.6375 2.8125,-1.87504 7.96874,-1.87504c5.1563,0 7.9688,1.23754 7.9688,1.87504v2.8968c-1.5422,-0.9797 -4.7625,-1.4906 -7.9688,-1.4906zM11.2031,13.3828c-0.564,1.7341 -0.8612,3.5438 -0.8812,5.3672h-4.21408c0.05794,-1.1866 0.35614,-2.3492 0.87656,-3.4172c0.03152,-0.0641 0.04758,-0.1348 0.04688,-0.2062v-0.1266c0,-0.4547 1.45312,-1.2187 4.17184,-1.6172zM6.1172,19.6875h4.2047c0.0222,1.5619 0.2411,3.1147 0.6515,4.6219c-0.7671,0.3462 -1.48696,0.7889 -2.14214,1.3172c-1.6281,-1.5618 -2.59883,-3.686 -2.71406,-5.9391zM9.55313,26.25c0.52747,-0.4117 1.09987,-0.7624 1.70627,-1.0453c0.3169,0.9449 0.7994,1.8258 1.425,2.6016c-1.1369,-0.3053 -2.2015,-0.8344 -3.13127,-1.5563zM15,28.125c-1.05,0 -2.1422,-1.2094 -2.8734,-3.2625c1.8605,-0.65 3.8864,-0.65 5.7469,0c-0.7313,2.0531 -1.8235,3.2625 -2.8735,3.2625zM17.3156,27.8063c0.6256,-0.7758 1.1082,-1.6567 1.425,-2.6016c0.6064,0.2829 1.1788,0.6336 1.7063,1.0453c-0.9298,0.7219 -1.9944,1.251 -3.1313,1.5563zM21.1688,25.6266c-0.6552,-0.5283 -1.3751,-0.971 -2.1422,-1.3172c0.4104,-1.5072 0.6293,-3.06 0.6515,-4.6219h4.2047c-0.1152,2.2531 -1.0859,4.3773 -2.714,5.9391zM19.6781,18.75c-0.02,-1.8234 -0.3172,-3.6331 -0.8812,-5.3672c2.7187,0.3985 4.1719,1.1625 4.1719,1.6172v0.1266c-0.0007,0.0714 0.0153,0.1421 0.0468,0.2062c0.5205,1.068 0.8187,2.2306 0.8766,3.4172zM23.9063,13.5422v-2.7609c0,-1.84692 -4.4813,-2.81254 -8.9063,-2.81254c-4.425,0 -8.90624,0.96562 -8.90624,2.81254v2.7609l-3.89532,-3.1875l12.80156,-8.38594l12.8016,8.38594zM27.9422,19.4672c-0.041,0.0686 -0.0995,0.1252 -0.1695,0.1639c-0.07,0.0387 -0.149,0.0581 -0.2289,0.0564h-0.7125c-0.08,0.0017 -0.159,-0.0177 -0.229,-0.0564c-0.0699,-0.0387 -0.1284,-0.0953 -0.1695,-0.1639c-0.0427,-0.0682 -0.0673,-0.1463 -0.0714,-0.2266c-0.0041,-0.0804 0.0124,-0.1606 0.048,-0.2328l0.7781,-1.5515l0.7781,1.5515c0.0356,0.0722 0.0521,0.1524 0.048,0.2328c-0.0041,0.0803 -0.0287,0.1584 -0.0714,0.2266z"></path></g></g></svg>